<?xml version="1.0" encoding="UTF-8" standalone="no"?>
<svg
   xmlns:dc="http://purl.org/dc/elements/1.1/"
   xmlns:cc="http://creativecommons.org/ns#"
   xmlns:rdf="http://www.w3.org/1999/02/22-rdf-syntax-ns#"
   xmlns:svg="http://www.w3.org/2000/svg"
   xmlns="http://www.w3.org/2000/svg"
   xmlns:sodipodi="http://sodipodi.sourceforge.net/DTD/sodipodi-0.dtd"
   xmlns:inkscape="http://www.inkscape.org/namespaces/inkscape"
   version="1.1"
   width="140.18021"
   height="87.426437"
   viewBox="530 93 140.18021 87.426437"
   id="svg17"
   sodipodi:docname="graphic.svg"
   inkscape:version="1.0.2-2 (e86c870879, 2021-01-15)">
  <metadata
     id="metadata23">
    <rdf:RDF>
      <cc:Work
         rdf:about="">
        <dc:format>image/svg+xml</dc:format>
        <dc:type
           rdf:resource="http://purl.org/dc/dcmitype/StillImage" />
        <dc:title></dc:title>
      </cc:Work>
    </rdf:RDF>
  </metadata>
  <defs
     id="defs21" />
  <sodipodi:namedview
     pagecolor="#ffffff"
     bordercolor="#666666"
     borderopacity="1"
     objecttolerance="10"
     gridtolerance="10"
     guidetolerance="10"
     inkscape:pageopacity="0"
     inkscape:pageshadow="2"
     inkscape:window-width="1920"
     inkscape:window-height="1057"
     id="namedview19"
     showgrid="false"
     inkscape:zoom="1.2700516"
     inkscape:cx="46.290207"
     inkscape:cy="102.69721"
     inkscape:window-x="-8"
     inkscape:window-y="-8"
     inkscape:window-maximized="1"
     inkscape:current-layer="svg17"
     inkscape:document-rotation="0" />
  <g
     id="document"
     fill="#ffffff"
     fill-rule="nonzero"
     stroke="#000000"
     stroke-width="0"
     stroke-linecap="butt"
     stroke-linejoin="miter"
     stroke-miterlimit="10"
     stroke-dasharray="none"
     stroke-dashoffset="0"
     font-family="none"
     font-weight="none"
     font-size="none"
     text-anchor="none"
     style="mix-blend-mode:normal"
     transform="matrix(0.20025744,0,0,0.12489491,423.86356,81.384773)">
    <rect
       x="530"
       y="66.428574"
       transform="scale(1,1.4)"
       width="700"
       height="500"
       id="Shape 1 1"
       vector-effect="non-scaling-stroke"
       style="fill:none" />
  </g>
  <g
     id="g109"
     transform="translate(-204.7161,-254.32039)">
    <g
       id="g95">
      <g
         fill-opacity="0"
         fill="#000000"
         fill-rule="nonzero"
         stroke="#000000"
         stroke-width="1"
         stroke-linecap="round"
         stroke-linejoin="round"
         stroke-miterlimit="10"
         stroke-dasharray="none"
         stroke-dashoffset="0"
         font-family="none"
         font-weight="none"
         font-size="none"
         text-anchor="none"
         style="mix-blend-mode:normal"
         id="g15">
        <g
           id="stage">
          <g
             id="layer1 1">
            <path
               d="m 743,427.5 v -65 h 121 v 65 z"
               id="Path 1"
               style="fill:#1c241f" />
            <g
               id="g74">
              <path
                 d="m 743,363 v -8 h 20 v 8 z"
                 id="path5" />
            </g>
            <path
               d="m 787,362.5 v -9 h 36 v 9 z"
               id="path7" />
            <path
               d="m 788.5,396 c 0,-9.38884 7.3873,-17 16.5,-17 9.1127,0 16.5,7.61116 16.5,17 0,9.38884 -7.3873,17 -16.5,17 -9.1127,0 -16.5,-7.61116 -16.5,-17 z"
               id="path9" />
            <path
               d="m 781,396 c 0,-13.25483 10.74517,-24 24,-24 13.25483,0 24,10.74517 24,24 0,13.25483 -10.74517,24 -24,24 -13.25483,0 -24,-10.74517 -24,-24 z"
               id="path11" />
          </g>
        </g>
      </g>
      <path
         style="fill:none;stroke-width:0.786517"
         d="M 213.93258,302.02247 V 270.5618 h 59.77529 59.77528 v 31.46067 31.46068 h -59.77528 -59.77529 z m 72.05433,23.19363 c 4.56832,-2.23507 8.7696,-6.4699 11.46553,-11.55706 2.64918,-4.99896 2.60399,-15.93688 -0.0884,-21.4074 -4.10448,-8.33955 -11.56644,-13.19611 -21.04048,-13.69403 -7.63485,-0.40127 -12.45798,1.27644 -17.85815,6.2119 -17.38364,15.88767 -5.10281,44.54731 18.35033,42.82396 3.21072,-0.23593 6.57873,-1.10899 9.17121,-2.37737 z"
         id="path27"
         transform="translate(530,93)" />
      <path
         style="fill:none;stroke-width:0.786517"
         d="M 213.93258,302.02247 V 270.5618 h 59.77529 59.77528 v 31.46067 31.46068 h -59.77528 -59.77529 z m 72.05433,23.19363 c 4.56832,-2.23507 8.7696,-6.4699 11.46553,-11.55706 2.64918,-4.99896 2.60399,-15.93688 -0.0884,-21.4074 -4.10448,-8.33955 -11.56644,-13.19611 -21.04048,-13.69403 -7.63485,-0.40127 -12.45798,1.27644 -17.85815,6.2119 -17.38364,15.88767 -5.10281,44.54731 18.35033,42.82396 3.21072,-0.23593 6.57873,-1.10899 9.17121,-2.37737 z"
         id="path29"
         transform="translate(530,93)" />
    </g>
  </g>
  <path
     style="fill:#b7c4c8;stroke-width:0.393685"
     d="m 539.06896,141.01314 v -31.62773 l 14.82761,-0.26074 c 8.15518,-0.14341 35.08322,-0.26074 59.84009,-0.26074 h 45.01248 v 31.88846 31.88847 h -59.84009 -59.84009 z m 67.08016,24.55242 c 8.37292,-2.14143 14.6351,-7.98635 17.61084,-16.4374 1.1421,-3.24353 1.40952,-9.32344 0.56753,-12.90314 -2.09535,-8.90843 -9.28972,-16.25276 -18.11957,-18.49727 -3.00597,-0.7641 -8.82831,-0.76534 -11.84196,-0.003 -8.68229,2.1977 -16.03733,9.64698 -18.07136,18.30294 -0.70595,3.0042 -0.78866,7.76352 -0.18612,10.70853 0.23477,1.14742 1.22495,3.74932 2.20041,5.78199 4.97832,10.37388 16.74003,15.88581 27.84023,13.04686 z"
     id="path169" />
  <path
     style="fill:#b7c4c8;stroke-width:0.393685"
     d="m 539.06896,104.53339 v -3.14948 h 9.25159 9.25159 v 3.14948 3.14948 h -9.25159 -9.25159 z"
     id="path171" />
  <path
     style="fill:#93a7ac;stroke-width:0.393685"
     d="m 582.76797,103.74602 v -3.936847 h 17.32213 17.32213 v 3.936847 3.93685 H 600.0901 582.76797 Z"
     id="path173" />
  <path
     style="fill:#0b2228;stroke-width:0.393685"
     d="m 596.84818,164.73407 c -4.90915,-0.71924 -10.25704,-3.57261 -13.64632,-7.28103 -6.99242,-7.65082 -8.16601,-18.82143 -2.90705,-27.67018 3.98407,-6.7036 12.27843,-11.45683 19.99213,-11.45683 9.90192,0 19.33614,7.06078 22.33759,16.71794 1.73469,5.58136 0.88374,12.912 -2.11027,18.1792 -3.44743,6.06488 -10.04827,10.50747 -17.13404,11.53182 -3.04626,0.44038 -3.39091,0.43928 -6.53204,-0.0209 z m 8.43348,-6.25644 c 12.79334,-3.95146 16.34002,-20.74776 6.3228,-29.9434 -6.48932,-5.9571 -16.14571,-5.9571 -22.63503,0 -9.14114,8.39141 -7.10747,23.61214 3.87263,28.9842 1.18519,0.57986 2.72508,1.18979 3.42199,1.35542 2.42553,0.57644 6.43952,0.40007 9.01761,-0.39622 z"
     id="path175" />
  <path
     style="fill:#afdde9;stroke-width:0.393685"
     d="m 596.74378,157.52888 c -2.89335,-0.70361 -5.94867,-2.51432 -7.89459,-4.67865 -6.16421,-6.85609 -5.72764,-17.02134 0.99846,-23.24852 3.22387,-2.98473 5.81872,-3.97205 10.43929,-3.97205 4.62058,0 7.21543,0.98732 10.4393,3.97205 6.85507,6.34659 7.11616,17.06452 0.57514,23.61036 -4.04776,4.05073 -9.27622,5.60115 -14.5576,4.31681 z"
     id="path177" />
  <path
     style="fill:#374548;stroke-width:0.393685"
     d="m 538.67527,141.04766 v -31.59321 l 2.06685,-0.0274 c 1.13676,-0.0151 28.15338,-0.17725 60.03693,-0.36042 l 57.97009,-0.33304 v 31.95363 31.95362 h -60.03693 -60.03694 z m 66.72958,24.78819 c 1.24081,-0.32418 5.79838,-2.10899 6.94694,-2.72053 1.77795,-0.94665 5.21152,-3.93399 6.91297,-6.01455 1.55429,-1.90061 4.6771,-7.29362 4.22335,-7.29362 -0.11939,0 -0.0787,-0.22145 0.0904,-0.49211 0.16909,-0.27066 0.36486,-0.75784 0.43506,-1.08263 0.57495,-2.66029 0.67734,-3.87896 0.64499,-7.67686 -0.0305,-3.57981 -0.20486,-4.77784 -1.0058,-6.91084 -1.38105,-3.67791 -4.77955,-8.40469 -7.81522,-10.86976 -2.65093,-2.15265 -6.42003,-4.34369 -7.96818,-4.63205 -0.48935,-0.0911 -0.88972,-0.20149 -0.88972,-0.24521 0,-0.65618 -12.83339,-0.63719 -13.48371,0.0199 -0.0541,0.0547 -0.27558,0.14375 -0.4921,0.19788 -0.21653,0.0541 -0.43798,0.13412 -0.49211,0.17775 -0.0541,0.0436 -0.36416,0.13513 -0.68895,0.20333 -1.16041,0.24366 -5.72967,3.05591 -7.69963,4.7389 -3.37897,2.88674 -6.92461,8.577 -7.89076,12.66357 -0.60197,2.5462 -0.56091,9.74819 0.0669,11.74281 2.27677,7.23294 7.02457,12.96855 13.38339,16.16785 1.39355,0.70114 2.53374,1.20778 2.53374,1.12586 0,-0.0819 0.48718,0.0401 1.08263,0.27122 0.59545,0.23108 1.52154,0.50321 2.05797,0.60472 0.53644,0.10151 1.04089,0.25011 1.121,0.33022 0.20749,0.2075 7.98143,-0.0589 8.92684,-0.3059 z"
     id="path179" />
  <path
     style="fill:#374548;stroke-width:0.393685"
     d="m 582.76797,103.74602 v -3.936847 h 17.32213 17.32213 v 3.936847 3.93685 H 600.0901 582.76797 Z"
     id="path181" />
  <path
     style="fill:#dbe2e3;stroke-width:0.393685"
     d="m 538.67527,104.53339 v -3.14948 h 9.44844 9.44843 v 3.14948 3.14948 h -9.44843 -9.44844 z"
     id="path183" />
  <path
     style="fill:#374548;stroke-width:0.393685"
     d="m 594.90384,156.76594 c -3.00047,-1.26432 -5.2413,-2.97124 -7.03567,-5.35932 -3.49895,-4.65666 -4.15869,-11.5313 -1.60454,-16.71952 1.5912,-3.23218 4.6022,-6.31036 7.50384,-7.67125 1.92368,-0.90223 2.68987,-1.02664 6.32263,-1.02664 4.68278,0 6.7774,0.59806 9.42071,2.68978 6.39811,5.06301 8.19045,14.39754 4.10554,21.38163 -1.28857,2.2031 -4.30264,4.95594 -6.87975,6.28349 -1.78697,0.92052 -2.70533,1.11289 -5.85913,1.22732 -3.24614,0.11778 -4.03495,0.0114 -5.97363,-0.80549 z"
     id="path185" />
  <path
     style="fill:#374548;stroke-width:0.393685"
     d="m 538.67527,104.53339 v -3.14948 h 9.44844 9.44843 v 3.14948 3.14948 h -9.44843 -9.44844 z"
     id="path187" />
  <path
     style="fill:#dbe2e3;stroke-width:0.393685"
     d="m 593.88924,156.07356 c -7.88974,-3.82639 -11.25896,-13.72469 -7.32097,-21.50799 1.32112,-2.61114 4.06767,-5.51838 6.64378,-7.03247 1.88082,-1.10543 2.14854,-1.1502 6.87805,-1.1502 4.23062,0 5.18258,0.12079 6.78499,0.86096 2.65129,1.22466 5.62443,4.36232 7.11479,7.50848 1.18695,2.50566 1.25709,2.90635 1.25709,7.18111 0,4.22027 -0.0778,4.68105 -1.14744,6.79295 -1.41626,2.79635 -4.99709,6.28183 -7.78898,7.58159 -1.78491,0.83095 -2.65622,0.97058 -6.02361,0.96526 -3.57293,-0.006 -4.16432,-0.11653 -6.3977,-1.19969 z"
     id="path189" />
</svg>
